<?xml version="1.0" encoding="UTF-8"?>
<svg id="Layer_1" xmlns="http://www.w3.org/2000/svg" version="1.1" viewBox="0 0 500 500">
  <!-- Generator: Adobe Illustrator 30.4.0, SVG Export Plug-In . SVG Version: 2.1.4 Build 226)  -->
  <defs>
    <style>
      .st0 {
        fill: #fff;
      }
    </style>
  </defs>
  <path class="st0" d="M85.18,179.85c-.57,0-14.74,0-28.34,7.09-7.94,4.25-14.46,9.64-18.99,16.72-4.82,7.65-7.65,16.72-8.5,27.49,0,1.7-.28,3.4-.28,5.1s0,3.4.28,5.67c.85,10.2,3.68,18.99,8.5,26.36,4.54,6.8,11.34,12.47,19.27,16.44,13.89,6.8,28.06,6.8,28.06,6.8h63.21l-.28.85-11.05,24.94-.28,1.42-.28.85h2.55c3.68,0,34.86-1.13,42.52-7.37,7.94-6.8,15.02-17.86,24.38-38.27.85-1.7,1.42-3.4,2.27-5.1l1.42-3.4.57-1.13.28-.85h-111.11s-8.22,0-16.44-3.4c-4.82-1.98-8.5-4.54-11.34-7.94-2.27-2.83-3.97-6.24-4.54-10.2-.28-1.7-.57-3.4-.57-5.39v-.57c0-1.7.28-3.68.57-5.1.85-3.97,2.27-7.65,4.54-10.77,2.83-3.4,6.52-6.52,11.34-8.5,7.37-3.12,15.02-3.68,16.44-3.68h112.81c5.1,0,1.98,1.13,0,1.42-6.8,1.7-18.71,4.54-21.54,5.1-3.12.85-5.39,1.98-7.37,3.68-1.98,1.7-3.68,5.1-4.25,5.95l-14.46,32.03-.57,1.42-.57.85h2.55c6.24-.57,28.06-2.27,43.08-8.22,8.79-3.4,16.72-21.54,21.54-32.6,3.68-8.22,6.52-9.64,12.47-9.92h56.97c6.52,0,12.47-1.42,18.42-4.25,4.54-2.27,8.79-5.67,12.76-9.64,1.98-1.98,3.68-4.25,5.39-6.52,1.7-2.55,3.12-4.54,3.68-5.67l.85-1.42.57-.85H85.18v.57ZM152.92,293.79c.57-1.42.57-3.4-.28-4.82s-2.55-2.27-4.25-2.27h-62.93s-13.32-.28-26.08-6.52c-7.37-3.68-13.32-8.5-17.57-14.74-.85-1.42-1.7-2.83-2.55-4.25-.57-1.13-1.13-1.98-1.42-3.12,0-.28-.28-.28-.28-.57-.28-.85-.57-1.7-.85-2.83v-.28c-1.42-3.97-1.98-8.22-2.55-12.76h12.76c0,3.4.85,9.92,7.09,20.12,3.4,5.67,8.79,9.64,15.31,12.76,12.19,5.67,22.96,6.24,30.61,6.24h51.3c3.68,0,7.09,1.42,9.07,4.54s.57,7.65-3.12,13.32c-3.4,5.1-6.24,9.07-13.04,15.02l8.79-19.84ZM178.43,310.23c-3.97,3.12-20.12,4.25-34.86,4.82,37.7-2.83,54.14-34.01,58.39-43.65-7.37,18.42-15.02,31.75-23.53,38.83ZM226.62,216.13c-3.97,8.79-11.9,28.91-18.71,31.46-9.64,3.68-28.06,5.39-37.42,6.52.28-.28.85-.57,1.42-.57,10.49-5.39,26.36-12.76,30.61-15.87,7.09-5.1,18.42-19.84,27.21-26.93-1.13,1.42-2.27,3.12-3.12,5.39ZM333.48,184.38c-.28.57-.85.85-1.13,1.42,0,0,0,.28-.28.28-.85,1.13-1.7,2.27-2.83,3.4-.57.57-.85.85-1.13,1.42-3.4,3.68-7.37,6.52-11.62,8.79-5.1,2.55-10.49,4.25-16.44,4.25H99.06c-.28,0-9.35,0-18.42,3.97-5.39,2.27-9.92,5.67-13.04,9.92-.57.57-.85,1.13-1.42,1.98h0c-.28.28-.28.57-.57.85v.28h0c0,.28-.28.28-.28.57h0c-.28.57-.57.85-.57,1.42,0,.28-.28.57-.28.85-.28.57-.57,1.13-.57,1.7q0,.28-.28.57c-.28.57-.28,1.13-.57,1.98v.28c-.28.57-.28,1.42-.57,1.98v.28c0,.28,0,.85-.28,1.13h0v1.13h0c0,.85-.28,1.7-.28,2.55h0v1.98c0,1.42,0,2.55.28,3.97,0,.57,0,.85.28,1.42h0c0,.57.28.85.28,1.13,0,.57.28,1.13.28,1.98h0c0,.28.28.57.28.85,0,.57.28.85.57,1.42.28.57.28,1.13.57,1.7h0c.28.85.85,1.7,1.42,2.55v.28c0,.28.28.57.28.57h0c.57.85,1.13,1.7,1.98,2.55,3.12,3.97,7.65,7.09,13.04,9.35,9.07,3.68,18.14,3.68,18.14,3.68h104.03c-25.51,6.52-63.78,7.09-104.03,7.09-1.7,0-40.25-.85-44.78-32.31v-2.27c-.28-1.42-.28-2.83-.28-3.97v-.57c0-1.42,0-3.12.28-4.82,3.4-35.71,43.08-36.28,44.78-36.28h117.63c61.22,0,101.19-5.67,116.5-11.34h0Z"/>
  <g>
    <path class="st0" d="M233.99,288.41l4.25-24.66h9.64c4.54,0,6.24,1.42,6.24,3.97v1.13l-.57,2.55c-.28,1.7-1.13,3.12-3.68,3.97,1.98.57,3.12,1.98,3.12,3.68v.85l-.28,2.83c-.57,3.4-2.55,5.67-8.22,5.67h-10.49ZM247.59,279.9c0-1.13-.57-1.7-1.98-1.7h-4.54l-1.13,5.95h3.68c1.7,0,3.12-.28,3.4-2.27l.28-1.42c.28-.28.28-.57.28-.57ZM248.44,269.98v-.57c0-.85-.57-1.42-1.98-1.42h-3.68l-1.13,5.67h3.68c1.7,0,2.27-.85,2.55-1.98l.57-1.7Z"/>
    <path class="st0" d="M265.16,280.75h-3.68l-1.42,7.65h-5.39l4.25-24.66h9.35c5.39,0,7.94,1.98,7.94,5.67,0,.57,0,.85-.28,1.42l-.57,2.83c-.57,3.12-1.7,5.1-4.82,6.24l4.54,8.5h-6.24l-3.68-7.65ZM270.55,271.4v-1.13c0-1.13-.85-1.7-2.55-1.7h-4.54l-1.42,7.37h4.54c2.27,0,3.12-.85,3.4-2.83l.57-1.7Z"/>
    <path class="st0" d="M282.17,263.75h5.39l-4.25,24.66h-5.39l4.25-24.66Z"/>
    <path class="st0" d="M297.76,288.41h-5.39l3.4-19.84h-6.52l.85-4.82h18.71l-.85,4.82h-6.8l-3.4,19.84Z"/>
    <path class="st0" d="M311.08,263.75h5.39l-4.25,24.66h-5.39l4.25-24.66Z"/>
    <path class="st0" d="M316.18,287.27l1.13-4.25c2.27.57,4.25,1.13,6.8,1.13,2.83,0,3.68-.57,3.97-2.83,0-.57.28-.85.28-1.42,0-1.13-.85-1.42-3.68-2.27-3.97-1.13-5.67-2.55-5.67-5.39,0-.85,0-1.7.28-2.55,1.13-5.39,2.55-6.52,9.35-6.52,1.98,0,5.1.28,7.09.85l-.85,4.54c-2.27-.57-5.1-.85-6.52-.85-2.55,0-3.12.28-3.4,2.27,0,.57-.28,1.13-.28,1.42,0,1.13.85,1.42,3.68,1.98,4.54,1.13,5.95,2.55,5.95,5.1,0,.85,0,1.7-.28,2.55-.85,5.1-2.55,7.37-9.64,7.37-2.83.28-6.24-.28-8.22-1.13Z"/>
    <path class="st0" d="M350.48,278.49h-7.94l-1.7,9.92h-5.39l4.25-24.66h5.39l-1.7,9.92h7.94l1.7-9.92h5.39l-4.25,24.66h-5.39l1.7-9.92Z"/>
    <path class="st0" d="M366.07,283.02c0-.57,0-1.13.28-1.42l1.98-10.77c.85-4.54,3.4-7.09,9.92-7.09,2.55,0,5.67.57,7.65,1.13l-1.13,4.54c-1.98-.57-5.1-.85-7.09-.85-2.83,0-3.68,1.13-4.25,3.4l-1.42,8.5v1.13c0,1.42.85,2.27,3.12,2.27,1.13,0,2.55-.28,3.68-.28l1.13-6.8h5.1l-1.98,10.49c-2.27.85-5.1,1.7-8.5,1.7-5.95-.28-8.5-2.55-8.5-5.95Z"/>
    <path class="st0" d="M396.68,288.41h-5.39l3.4-19.84h-6.52l.85-4.82h18.71l-.85,4.82h-6.52l-3.68,19.84Z"/>
  </g>
  <g>
    <path class="st0" d="M227.47,314.77c0-.28,0-.85.28-1.42l1.98-10.77c.85-5.1,3.97-7.09,9.92-7.09,2.55,0,4.82.28,7.09,1.13l-1.13,4.54c-1.98-.57-4.54-.85-6.52-.85-2.55,0-3.68.85-4.25,3.4l-1.42,8.5v1.13c0,1.7.85,2.27,3.12,2.27,1.7,0,4.25-.28,6.52-.57l.28,4.54c-1.98.57-4.82.85-7.37.85-5.95.28-8.5-2.27-8.5-5.67Z"/>
    <path class="st0" d="M260.63,310.52h-7.65l-1.7,9.92h-5.39l4.25-24.66h5.39l-1.7,9.92h7.65l1.7-9.92h5.39l-4.25,24.66h-5.39l1.7-9.92Z"/>
    <path class="st0" d="M283.02,315.62h-8.5l-2.27,4.82h-5.95l11.9-24.66h7.37l3.4,24.66h-5.67l-.28-4.82ZM276.5,311.08h5.95l-1.13-10.77-4.82,10.77Z"/>
    <path class="st0" d="M313.07,306.83l-6.24,10.2h-5.67l-1.98-10.2-3.12,13.61h-5.39l5.95-24.66h5.39l3.12,15.87,9.07-15.87h5.39l-2.83,24.66h-5.39l1.7-13.61Z"/>
    <path class="st0" d="M326.96,312.78l-1.42,7.37h-5.39l4.25-24.66h9.35c5.39,0,7.94,1.98,7.94,5.67,0,.57,0,1.42-.28,1.98l-.57,2.83c-.85,4.54-2.83,6.8-9.07,6.8h-4.82ZM336.03,303.43v-1.13c0-1.13-.85-1.98-2.27-1.98h-4.54l-1.42,7.65h4.54c2.55,0,3.12-.85,3.4-2.83l.28-1.7Z"/>
    <path class="st0" d="M345.95,295.78h5.39l-4.25,24.66h-5.39l4.25-24.66Z"/>
    <path class="st0" d="M351.9,314.2v-1.13l1.7-10.2c.85-4.54,3.68-7.37,10.49-7.37,5.95,0,8.5,3.4,8.5,6.8v1.13l-1.7,9.92c-.85,4.82-3.68,7.37-10.77,7.37-5.67,0-8.22-3.12-8.22-6.52ZM367.49,302.58c0-1.42-1.13-2.55-3.68-2.55-2.83,0-4.25,1.13-4.54,3.12l-1.7,9.35v.85c0,1.42.85,2.27,3.68,2.27s4.25-1.13,4.54-3.12l1.7-9.35s0-.28,0-.57Z"/>
    <path class="st0" d="M381.38,303.43l-2.83,17.01h-5.39l4.25-24.66h6.52l5.39,17.86,3.12-17.86h5.39l-4.25,24.66h-6.8l-5.39-17.01Z"/>
    <path class="st0" d="M397.53,319.02l1.13-4.25c2.27.57,4.25,1.13,6.8,1.13,2.83,0,3.68-.57,3.97-2.83,0-.57.28-.85.28-1.42,0-1.13-.85-1.42-3.68-2.27-3.97-1.13-5.67-2.55-5.67-5.39,0-.85,0-1.7.28-2.55,1.13-5.39,2.55-6.52,9.35-6.52,1.98,0,5.1.28,7.09.85l-.85,4.54c-2.27-.57-5.1-.85-6.52-.85-2.55,0-3.12.28-3.4,2.27,0,.57-.28,1.13-.28,1.42,0,1.13.85,1.42,3.68,1.98,4.54,1.13,5.95,2.55,5.95,5.1,0,.85,0,1.7-.28,2.55-.85,5.1-2.55,7.37-9.64,7.37-2.83.57-6.24,0-8.22-1.13Z"/>
    <path class="st0" d="M431.83,310.52h-7.94l-1.7,9.92h-5.39l4.25-24.66h5.39l-1.7,9.92h7.94l1.7-9.92h5.39l-4.25,24.66h-5.39l1.7-9.92Z"/>
    <path class="st0" d="M444.3,295.78h5.39l-4.25,24.66h-5.39l4.25-24.66Z"/>
    <path class="st0" d="M456.21,312.78l-1.42,7.37h-5.39l4.25-24.66h9.35c5.39,0,7.94,1.98,7.94,5.67,0,.57,0,1.42-.28,1.98l-.57,2.83c-.85,4.54-2.83,6.8-9.07,6.8h-4.82ZM465.28,303.43v-1.13c0-1.13-.85-1.98-2.27-1.98h-4.54l-1.42,7.94h4.54c2.55,0,3.12-.85,3.4-2.83l.28-1.98Z"/>
  </g>
</svg>