<?xml version="1.0" encoding="UTF-8"?>
<svg id="Layer_1" xmlns="http://www.w3.org/2000/svg" version="1.1" viewBox="0 0 500 500">
  <!-- Generator: Adobe Illustrator 30.4.0, SVG Export Plug-In . SVG Version: 2.1.4 Build 226)  -->
  <defs>
    <style>
      .st0 {
        fill: #fff;
        fill-rule: evenodd;
      }
    </style>
  </defs>
  <path class="st0" d="M249.21,227.57h-17.56c-.09,1.55-.25,3.03-.26,4.5-.02,10.67.05,21.33-.07,32-.02,1.53-.5,3.47-1.5,4.5-10.17,10.43-20.49,20.72-31.63,31.9v-73.17c-7.55,0-14.53-.05-21.51.08-.71,0-1.87.95-2.02,1.63-1.86,8.7-7.67,13.73-15.43,17.05-.21.09-.33.43-.8,1.09,1.83.77,3.54,1.52,5.28,2.23,8.18,3.35,13.42,9.26,14.6,18.06,1.31,9.73-1.67,18.08-9.66,24.17-6.59,5.03-14.39,7.38-22.43,7.53-20.47.4-40.95.14-61.78.14v-100.04c1.58-.08,3.19-.23,4.81-.23,16.14-.02,32.28.03,48.42-.02,10.6-.04,21.06.4,30.42,7.8.16-2.82.28-4.97.42-7.45h92.37v10.89c24.69-17.27,48.82-18.5,73.17-.68-7.81,7.97-15.02,15.32-21.68,22.11-4.04-1.59-7.65-3.74-11.51-4.38-10.25-1.71-18.14,4-20.97,14.44-1.83,6.77-1.35,13.4,1.69,19.69,5.42,11.25,19.91,14.03,29.14,5.61,2.14-1.96,3.88-4.35,6.2-6.99,2.24,11.35,6.51,21.52,14.64,29.64-9.2,10.29-35.61,17.48-57.2,7.15-12.95-6.19-21.97-15.85-26.63-29.42-4.54-13.24-3.86-26.43,1.45-39.8ZM116.6,273.96c7.11,0,13.82.31,20.47-.11,4.64-.29,7.37-3.42,7.4-7.13.04-3.73-2.68-7.06-7.2-7.35-6.78-.43-13.6-.11-20.68-.11v14.7ZM116.34,224.46c0,4.15-.13,7.91.1,11.65.05.83,1.36,2.24,2.11,2.25,5.45.11,10.93.24,16.34-.25,4.77-.43,6.97-3.04,6.91-6.91-.06-3.72-2.54-6.38-7.22-6.66-5.83-.35-11.71-.08-18.25-.08Z"/>
  <path class="st0" d="M415.56,212.45c-8.4,8.16-15.81,15.36-23.49,22.82-3.78-4.92-8.74-8.37-15.66-8.32-8.5.06-14.48,3.75-17.7,11.65-2.76,6.78-2.77,13.75-.27,20.56,2.44,6.63,7.1,11.14,14.26,12.27,7.91,1.24,14.31-1.61,19.13-7.98,1-1.32,1.9-2.7,2.99-4.26,4.6,2.53,9.02,4.92,13.4,7.38,1.93,1.09,3.79,2.31,6.2,3.78-10.26,10.16-20.18,20.04-30.21,29.79-.88.86-2.5,1.17-3.82,1.3-27.24,2.87-58.4-15.95-57.6-53.21.47-21.74,10.58-38.29,30.75-46.67,20.56-8.54,40.62-6.95,58.19,8.47,1.04.91,2.35,1.51,3.82,2.43Z"/>
</svg>